<svg xmlns="http://www.w3.org/2000/svg" xmlns:xlink="http://www.w3.org/1999/xlink" width="500" zoomAndPan="magnify" viewBox="0 0 375 225" height="300" preserveAspectRatio="xMidYMid meet" version="1.0"><defs><g/><clipPath id="54c6ada334"><path d="M 120 8.753906 L 255 8.753906 L 255 149.003906 L 120 149.003906 Z M 120 8.753906 " clip-rule="nonzero"/></clipPath></defs><g clip-path="url(#54c6ada334)"><path fill="#c89a40" d="M 247.21875 65.296875 C 242.261719 58.898438 234.867188 50.976562 225.167969 44.925781 C 230.429688 38.3125 238.5625 32.523438 247 33.261719 L 249.785156 33.480469 C 251.046875 36.179688 252.175781 39.269531 253.003906 42.882812 C 246.652344 40.183594 240.5625 42.140625 240.5625 42.140625 C 244.433594 43.140625 250.785156 46.667969 254.089844 49.28125 C 254.570312 53.503906 254.65625 58.203125 254.175781 63.515625 C 251.914062 60.292969 248.652344 56.636719 244.21875 53.71875 C 244.21875 53.71875 245.957031 58.855469 247.175781 65.296875 Z M 120.398438 149.003906 C 131.574219 121.234375 122.832031 107.128906 121.003906 88.671875 L 131.445312 83.363281 L 120.699219 80.796875 C 120.832031 76.574219 121.398438 72.089844 122.746094 67.082031 C 132.878906 28.558594 168.0625 6.753906 204.769531 8.886719 L 199.074219 21.683594 C 204.207031 15.457031 210.292969 8.929688 218.601562 10.800781 C 230.691406 13.542969 240.128906 18.984375 247.523438 28.210938 C 243.304688 27.863281 236.214844 28.953125 229.214844 34.046875 C 224.515625 32 218.949219 30.433594 212.554688 29.867188 C 192.636719 28.039062 175.023438 32.828125 161.671875 43.140625 C 130.441406 71.652344 142.1875 92.984375 135.269531 120.363281 C 141.140625 111.699219 140.75 94.941406 143.097656 83.753906 C 146.40625 68.085938 154.101562 55.722656 164.933594 47.363281 C 177.195312 37.875 193.550781 33.480469 212.078125 35.175781 C 216.773438 35.613281 220.949219 36.613281 224.644531 37.960938 C 222.558594 40.050781 220.515625 42.621094 218.601562 45.625 L 226.953125 53.546875 C 228.996094 55.503906 229.5625 58.421875 229.734375 61.292969 C 230.039062 66.472656 230.519531 71.914062 233.5625 76.355469 L 237.171875 81.664062 L 238.347656 88.847656 L 229.820312 96.074219 L 223.210938 95.027344 C 222.429688 92.332031 222.210938 89.238281 216.339844 86.324219 C 211.25 83.796875 203.902344 82.40625 198.898438 78.835938 C 192.070312 73.917969 190.546875 60.597656 198.550781 57.117188 C 182.328125 62.207031 189.199219 85.105469 195.941406 95.683594 C 202.550781 106.042969 211.945312 112.003906 221.644531 123.105469 C 228.429688 130.851562 230.820312 139.644531 229.5625 149.136719 L 120.484375 149.136719 Z M 120.398438 149.003906 " fill-opacity="1" fill-rule="evenodd"/></g><g fill="#000000" fill-opacity="1"><g transform="translate(45.423032, 187.039381)"><g><path d="M 7.21875 0.234375 C 5.0625 0.234375 3.378906 -0.222656 2.171875 -1.140625 C 0.960938 -2.054688 0.28125 -3.390625 0.125 -5.140625 L 4.578125 -5.796875 C 4.609375 -5.179688 4.878906 -4.679688 5.390625 -4.296875 C 5.898438 -3.921875 6.554688 -3.734375 7.359375 -3.734375 C 8.835938 -3.734375 9.578125 -4.117188 9.578125 -4.890625 C 9.578125 -5.242188 9.367188 -5.53125 8.953125 -5.75 C 8.546875 -5.96875 7.878906 -6.191406 6.953125 -6.421875 C 4.953125 -6.898438 3.484375 -7.539062 2.546875 -8.34375 C 1.617188 -9.144531 1.164062 -10.28125 1.1875 -11.75 C 1.195312 -12.851562 1.488281 -13.828125 2.0625 -14.671875 C 2.632812 -15.523438 3.4375 -16.1875 4.46875 -16.65625 C 5.507812 -17.132812 6.726562 -17.375 8.125 -17.375 C 9.851562 -17.375 11.273438 -16.9375 12.390625 -16.0625 C 13.503906 -15.195312 14.144531 -14.015625 14.3125 -12.515625 L 10.078125 -11.796875 C 10.003906 -12.265625 9.757812 -12.644531 9.34375 -12.9375 C 8.9375 -13.238281 8.441406 -13.390625 7.859375 -13.390625 C 7.316406 -13.390625 6.878906 -13.28125 6.546875 -13.0625 C 6.222656 -12.84375 6.0625 -12.550781 6.0625 -12.1875 C 6.0625 -11.84375 6.222656 -11.546875 6.546875 -11.296875 C 6.878906 -11.046875 7.503906 -10.8125 8.421875 -10.59375 C 9.734375 -10.269531 10.835938 -9.898438 11.734375 -9.484375 C 12.628906 -9.078125 13.304688 -8.550781 13.765625 -7.90625 C 14.222656 -7.269531 14.453125 -6.425781 14.453125 -5.375 C 14.453125 -4.269531 14.148438 -3.296875 13.546875 -2.453125 C 12.941406 -1.609375 12.097656 -0.945312 11.015625 -0.46875 C 9.929688 0 8.664062 0.234375 7.21875 0.234375 Z M 7.21875 0.234375 "/></g></g></g><g fill="#000000" fill-opacity="1"><g transform="translate(68.125986, 187.039381)"><g><path d="M -0.9375 0 L 6.609375 -17.125 L 10.609375 -17.125 L 17.90625 0 L 13.03125 0 L 11.828125 -3.0625 L 5.1875 -3.0625 L 3.9375 0 Z M 6.828125 -7.046875 L 10.234375 -7.046875 L 8.5625 -11.25 Z M 6.828125 -7.046875 "/></g></g></g><g fill="#000000" fill-opacity="1"><g transform="translate(93.096632, 187.039381)"><g><path d="M 1.453125 0 L 1.453125 -17.125 L 6.265625 -17.125 L 6.265625 -4.203125 L 13.40625 -4.203125 L 13.125 0 Z M 1.453125 0 "/></g></g></g><g fill="#000000" fill-opacity="1"><g transform="translate(114.328015, 187.039381)"><g><path d="M 13.34375 -13 L 6.203125 -13 L 6.203125 -10.453125 L 12.71875 -10.453125 L 12.71875 -6.328125 L 6.203125 -6.328125 L 6.203125 0 L 1.453125 0 L 1.453125 -17.125 L 13.34375 -17.125 Z M 13.34375 -13 "/></g></g></g><g fill="#000000" fill-opacity="1"><g transform="translate(135.559392, 187.039381)"><g><path d="M 9.546875 0.234375 C 7.703125 0.253906 6.113281 -0.0703125 4.78125 -0.75 C 3.445312 -1.425781 2.425781 -2.398438 1.71875 -3.671875 C 1.007812 -4.941406 0.65625 -6.46875 0.65625 -8.25 C 0.65625 -10.082031 1.039062 -11.679688 1.8125 -13.046875 C 2.582031 -14.421875 3.65625 -15.484375 5.03125 -16.234375 C 6.414062 -16.992188 8.035156 -17.375 9.890625 -17.375 C 11.578125 -17.375 13.050781 -17.019531 14.3125 -16.3125 C 15.582031 -15.601562 16.566406 -14.613281 17.265625 -13.34375 C 17.960938 -12.082031 18.3125 -10.601562 18.3125 -8.90625 C 18.3125 -7.101562 17.941406 -5.515625 17.203125 -4.140625 C 16.472656 -2.773438 15.445312 -1.707031 14.125 -0.9375 C 12.8125 -0.164062 11.285156 0.222656 9.546875 0.234375 Z M 9.4375 -3.984375 C 10.675781 -3.984375 11.65625 -4.421875 12.375 -5.296875 C 13.101562 -6.171875 13.46875 -7.34375 13.46875 -8.8125 C 13.46875 -10.125 13.125 -11.171875 12.4375 -11.953125 C 11.75 -12.742188 10.835938 -13.140625 9.703125 -13.140625 C 8.859375 -13.140625 8.125 -12.9375 7.5 -12.53125 C 6.875 -12.125 6.390625 -11.5625 6.046875 -10.84375 C 5.703125 -10.125 5.53125 -9.300781 5.53125 -8.375 C 5.53125 -6.988281 5.875 -5.910156 6.5625 -5.140625 C 7.25 -4.367188 8.207031 -3.984375 9.4375 -3.984375 Z M 9.4375 -3.984375 "/></g></g></g><g fill="#000000" fill-opacity="1"><g transform="translate(162.435844, 187.039381)"><g><path d="M 16.546875 -4.4375 L 17.65625 -0.71875 C 17.269531 -0.414062 16.753906 -0.171875 16.109375 0.015625 C 15.472656 0.203125 14.820312 0.296875 14.15625 0.296875 C 12.882812 0.296875 11.832031 0.0625 11 -0.40625 C 10.164062 -0.875 9.488281 -1.535156 8.96875 -2.390625 L 7.375 -5.0625 C 7.1875 -5.382812 7.003906 -5.625 6.828125 -5.78125 C 6.648438 -5.945312 6.429688 -6.054688 6.171875 -6.109375 L 6.171875 0 L 1.453125 0 L 1.453125 -17.125 L 7.234375 -17.125 C 9.867188 -17.125 11.816406 -16.625 13.078125 -15.625 C 14.347656 -14.632812 14.984375 -13.253906 14.984375 -11.484375 C 14.984375 -10.234375 14.617188 -9.191406 13.890625 -8.359375 C 13.171875 -7.523438 12.21875 -6.941406 11.03125 -6.609375 C 11.632812 -6.421875 12.113281 -6.0625 12.46875 -5.53125 L 12.90625 -4.875 C 13.3125 -4.25 13.929688 -3.9375 14.765625 -3.9375 C 15.066406 -3.9375 15.363281 -3.972656 15.65625 -4.046875 C 15.957031 -4.117188 16.253906 -4.25 16.546875 -4.4375 Z M 7.1875 -13.25 L 6.171875 -13.25 L 6.171875 -9.84375 L 7.40625 -9.84375 C 8.445312 -9.84375 9.171875 -9.984375 9.578125 -10.265625 C 9.992188 -10.546875 10.203125 -10.984375 10.203125 -11.578125 C 10.203125 -12.222656 9.925781 -12.660156 9.375 -12.890625 C 8.820312 -13.128906 8.09375 -13.25 7.1875 -13.25 Z M 7.1875 -13.25 "/></g></g></g><g fill="#000000" fill-opacity="1"><g transform="translate(186.899872, 187.039381)"><g><path d="M 1.453125 0 L 1.453125 -17.125 L 7.484375 -17.125 C 10.910156 -17.125 13.492188 -16.40625 15.234375 -14.96875 C 16.984375 -13.53125 17.859375 -11.40625 17.859375 -8.59375 C 17.859375 -7.351562 17.628906 -6.207031 17.171875 -5.15625 C 16.722656 -4.113281 16.085938 -3.207031 15.265625 -2.4375 C 14.453125 -1.664062 13.484375 -1.066406 12.359375 -0.640625 C 11.242188 -0.210938 10.023438 0 8.703125 0 Z M 6.265625 -4.25 L 8.375 -4.25 C 9.894531 -4.25 11.046875 -4.609375 11.828125 -5.328125 C 12.609375 -6.054688 13 -7.101562 13 -8.46875 C 13 -10 12.585938 -11.113281 11.765625 -11.8125 C 10.953125 -12.519531 9.675781 -12.875 7.9375 -12.875 L 6.265625 -12.875 Z M 6.265625 -4.25 "/></g></g></g><g fill="#000000" fill-opacity="1"><g transform="translate(213.317967, 187.039381)"><g/></g></g><g fill="#000000" fill-opacity="1"><g transform="translate(227.553305, 187.039381)"><g><path d="M 8.28125 0.1875 C 6.832031 0.1875 5.550781 -0.0390625 4.4375 -0.5 C 3.332031 -0.957031 2.46875 -1.582031 1.84375 -2.375 C 1.226562 -3.175781 0.921875 -4.082031 0.921875 -5.09375 C 0.921875 -6.164062 1.160156 -7.046875 1.640625 -7.734375 C 2.117188 -8.429688 2.710938 -9.003906 3.421875 -9.453125 C 2.992188 -9.972656 2.660156 -10.5 2.421875 -11.03125 C 2.191406 -11.570312 2.078125 -12.171875 2.078125 -12.828125 C 2.078125 -13.679688 2.316406 -14.441406 2.796875 -15.109375 C 3.273438 -15.773438 3.9375 -16.300781 4.78125 -16.6875 C 5.632812 -17.082031 6.613281 -17.28125 7.71875 -17.28125 C 9.25 -17.28125 10.46875 -16.925781 11.375 -16.21875 C 12.28125 -15.519531 12.734375 -14.546875 12.734375 -13.296875 C 12.734375 -12.566406 12.582031 -11.953125 12.28125 -11.453125 C 11.976562 -10.960938 11.582031 -10.539062 11.09375 -10.1875 C 10.613281 -9.832031 10.09375 -9.507812 9.53125 -9.21875 L 13.34375 -5.765625 C 13.644531 -6.242188 13.878906 -6.773438 14.046875 -7.359375 L 12.453125 -7.359375 L 12.453125 -10.90625 L 19.609375 -10.90625 L 19.609375 -7.359375 L 17.828125 -7.359375 C 17.535156 -5.992188 16.976562 -4.753906 16.15625 -3.640625 C 16.644531 -3.460938 17.15625 -3.382812 17.6875 -3.40625 C 18.050781 -3.40625 18.351562 -3.441406 18.59375 -3.515625 C 18.84375 -3.585938 19.117188 -3.703125 19.421875 -3.859375 L 20.40625 -0.625 C 19.476562 0.03125 18.28125 0.335938 16.8125 0.296875 C 15.320312 0.242188 13.992188 -0.132812 12.828125 -0.84375 C 12.160156 -0.507812 11.441406 -0.253906 10.671875 -0.078125 C 9.910156 0.0976562 9.113281 0.1875 8.28125 0.1875 Z M 6.328125 -12.875 C 6.328125 -12.65625 6.378906 -12.441406 6.484375 -12.234375 C 6.597656 -12.023438 6.847656 -11.734375 7.234375 -11.359375 C 7.734375 -11.597656 8.144531 -11.859375 8.46875 -12.140625 C 8.789062 -12.421875 8.953125 -12.753906 8.953125 -13.140625 C 8.953125 -13.429688 8.84375 -13.648438 8.625 -13.796875 C 8.40625 -13.941406 8.117188 -14.015625 7.765625 -14.015625 C 7.316406 -14.015625 6.960938 -13.910156 6.703125 -13.703125 C 6.453125 -13.503906 6.328125 -13.226562 6.328125 -12.875 Z M 5.546875 -5.640625 C 5.546875 -4.953125 5.835938 -4.394531 6.421875 -3.96875 C 7.015625 -3.539062 7.773438 -3.328125 8.703125 -3.328125 C 9.085938 -3.328125 9.457031 -3.359375 9.8125 -3.421875 L 5.984375 -7 C 5.691406 -6.59375 5.546875 -6.140625 5.546875 -5.640625 Z M 5.546875 -5.640625 "/></g></g></g><g fill="#000000" fill-opacity="1"><g transform="translate(256.214957, 187.039381)"><g/></g></g><g fill="#000000" fill-opacity="1"><g transform="translate(270.450294, 187.039381)"><g><path d="M 17.171875 -3.40625 C 16.429688 -2.226562 15.414062 -1.320312 14.125 -0.6875 C 12.84375 -0.0507812 11.414062 0.265625 9.84375 0.265625 C 7.914062 0.265625 6.265625 -0.0703125 4.890625 -0.75 C 3.515625 -1.425781 2.460938 -2.398438 1.734375 -3.671875 C 1.015625 -4.941406 0.65625 -6.453125 0.65625 -8.203125 C 0.65625 -10.054688 1.050781 -11.664062 1.84375 -13.03125 C 2.644531 -14.394531 3.757812 -15.457031 5.1875 -16.21875 C 6.613281 -16.988281 8.28125 -17.375 10.1875 -17.375 C 11.851562 -17.375 13.253906 -17.078125 14.390625 -16.484375 C 15.535156 -15.898438 16.472656 -15 17.203125 -13.78125 L 13.5625 -11.1875 C 13.25 -11.789062 12.769531 -12.265625 12.125 -12.609375 C 11.488281 -12.953125 10.785156 -13.125 10.015625 -13.125 C 8.597656 -13.132812 7.5 -12.691406 6.71875 -11.796875 C 5.9375 -10.910156 5.546875 -9.753906 5.546875 -8.328125 C 5.546875 -6.953125 5.90625 -5.882812 6.625 -5.125 C 7.34375 -4.363281 8.421875 -3.984375 9.859375 -3.984375 C 11.535156 -3.984375 12.789062 -4.707031 13.625 -6.15625 Z M 17.171875 -3.40625 "/></g></g></g><g fill="#000000" fill-opacity="1"><g transform="translate(295.083203, 187.039381)"><g><path d="M 9.546875 0.234375 C 7.703125 0.253906 6.113281 -0.0703125 4.78125 -0.75 C 3.445312 -1.425781 2.425781 -2.398438 1.71875 -3.671875 C 1.007812 -4.941406 0.65625 -6.46875 0.65625 -8.25 C 0.65625 -10.082031 1.039062 -11.679688 1.8125 -13.046875 C 2.582031 -14.421875 3.65625 -15.484375 5.03125 -16.234375 C 6.414062 -16.992188 8.035156 -17.375 9.890625 -17.375 C 11.578125 -17.375 13.050781 -17.019531 14.3125 -16.3125 C 15.582031 -15.601562 16.566406 -14.613281 17.265625 -13.34375 C 17.960938 -12.082031 18.3125 -10.601562 18.3125 -8.90625 C 18.3125 -7.101562 17.941406 -5.515625 17.203125 -4.140625 C 16.472656 -2.773438 15.445312 -1.707031 14.125 -0.9375 C 12.8125 -0.164062 11.285156 0.222656 9.546875 0.234375 Z M 9.4375 -3.984375 C 10.675781 -3.984375 11.65625 -4.421875 12.375 -5.296875 C 13.101562 -6.171875 13.46875 -7.34375 13.46875 -8.8125 C 13.46875 -10.125 13.125 -11.171875 12.4375 -11.953125 C 11.75 -12.742188 10.835938 -13.140625 9.703125 -13.140625 C 8.859375 -13.140625 8.125 -12.9375 7.5 -12.53125 C 6.875 -12.125 6.390625 -11.5625 6.046875 -10.84375 C 5.703125 -10.125 5.53125 -9.300781 5.53125 -8.375 C 5.53125 -6.988281 5.875 -5.910156 6.5625 -5.140625 C 7.25 -4.367188 8.207031 -3.984375 9.4375 -3.984375 Z M 9.4375 -3.984375 "/></g></g></g><g fill="#000000" fill-opacity="1"><g transform="translate(321.959655, 187.039381)"><g><path d="M 3.78125 0.265625 C 2.851562 0.265625 2.117188 -0.0078125 1.578125 -0.5625 C 1.035156 -1.125 0.765625 -1.8125 0.765625 -2.625 C 0.765625 -3.46875 1.035156 -4.164062 1.578125 -4.71875 C 2.117188 -5.269531 2.851562 -5.546875 3.78125 -5.546875 C 4.71875 -5.546875 5.457031 -5.269531 6 -4.71875 C 6.550781 -4.164062 6.828125 -3.46875 6.828125 -2.625 C 6.828125 -1.8125 6.550781 -1.125 6 -0.5625 C 5.457031 -0.0078125 4.71875 0.265625 3.78125 0.265625 Z M 3.78125 0.265625 "/></g></g></g><g fill="#000000" fill-opacity="1"><g transform="translate(98.188729, 213.140361)"><g><path d="M 9.171875 -1.8125 C 8.773438 -1.1875 8.234375 -0.703125 7.546875 -0.359375 C 6.859375 -0.0234375 6.09375 0.140625 5.25 0.140625 C 4.21875 0.140625 3.332031 -0.0351562 2.59375 -0.390625 C 1.863281 -0.753906 1.304688 -1.273438 0.921875 -1.953125 C 0.535156 -2.628906 0.34375 -3.4375 0.34375 -4.375 C 0.34375 -5.363281 0.554688 -6.222656 0.984375 -6.953125 C 1.410156 -7.679688 2.003906 -8.25 2.765625 -8.65625 C 3.523438 -9.0625 4.414062 -9.265625 5.4375 -9.265625 C 6.320312 -9.265625 7.066406 -9.109375 7.671875 -8.796875 C 8.285156 -8.484375 8.789062 -8.003906 9.1875 -7.359375 L 7.234375 -5.96875 C 7.066406 -6.289062 6.8125 -6.539062 6.46875 -6.71875 C 6.132812 -6.90625 5.757812 -7 5.34375 -7 C 4.582031 -7.007812 3.992188 -6.773438 3.578125 -6.296875 C 3.171875 -5.828125 2.96875 -5.207031 2.96875 -4.4375 C 2.96875 -3.707031 3.15625 -3.140625 3.53125 -2.734375 C 3.914062 -2.328125 4.492188 -2.125 5.265625 -2.125 C 6.160156 -2.125 6.832031 -2.507812 7.28125 -3.28125 Z M 9.171875 -1.8125 "/></g></g></g><g fill="#000000" fill-opacity="1"><g transform="translate(117.424476, 213.140361)"><g><path d="M 5.09375 0.125 C 4.113281 0.132812 3.265625 -0.0351562 2.546875 -0.390625 C 1.835938 -0.753906 1.289062 -1.273438 0.90625 -1.953125 C 0.53125 -2.628906 0.34375 -3.445312 0.34375 -4.40625 C 0.34375 -5.382812 0.546875 -6.238281 0.953125 -6.96875 C 1.367188 -7.695312 1.945312 -8.257812 2.6875 -8.65625 C 3.425781 -9.0625 4.289062 -9.265625 5.28125 -9.265625 C 6.175781 -9.265625 6.960938 -9.078125 7.640625 -8.703125 C 8.316406 -8.328125 8.835938 -7.800781 9.203125 -7.125 C 9.578125 -6.445312 9.765625 -5.65625 9.765625 -4.75 C 9.765625 -3.789062 9.566406 -2.945312 9.171875 -2.21875 C 8.785156 -1.488281 8.238281 -0.914062 7.53125 -0.5 C 6.832031 -0.09375 6.019531 0.113281 5.09375 0.125 Z M 5.03125 -2.125 C 5.695312 -2.125 6.222656 -2.359375 6.609375 -2.828125 C 6.992188 -3.296875 7.1875 -3.921875 7.1875 -4.703125 C 7.1875 -5.398438 7.003906 -5.957031 6.640625 -6.375 C 6.273438 -6.800781 5.785156 -7.015625 5.171875 -7.015625 C 4.722656 -7.015625 4.332031 -6.90625 4 -6.6875 C 3.664062 -6.46875 3.40625 -6.164062 3.21875 -5.78125 C 3.039062 -5.40625 2.953125 -4.96875 2.953125 -4.46875 C 2.953125 -3.726562 3.132812 -3.148438 3.5 -2.734375 C 3.875 -2.328125 4.382812 -2.125 5.03125 -2.125 Z M 5.03125 -2.125 "/></g></g></g><g fill="#000000" fill-opacity="1"><g transform="translate(137.857982, 213.140361)"><g><path d="M 6.609375 -9.140625 L 9.078125 -9.140625 L 9.078125 0 L 6.78125 0 L 3.25 -4.921875 L 3.25 0 L 0.765625 0 L 0.765625 -9.140625 L 3.0625 -9.140625 L 6.609375 -4.234375 Z M 6.609375 -9.140625 "/></g></g></g><g fill="#000000" fill-opacity="1"><g transform="translate(158.021027, 213.140361)"><g><path d="M 3.84375 0.125 C 2.695312 0.125 1.800781 -0.117188 1.15625 -0.609375 C 0.507812 -1.097656 0.144531 -1.8125 0.0625 -2.75 L 2.453125 -3.09375 C 2.460938 -2.757812 2.601562 -2.492188 2.875 -2.296875 C 3.144531 -2.097656 3.492188 -2 3.921875 -2 C 4.710938 -2 5.109375 -2.203125 5.109375 -2.609375 C 5.109375 -2.796875 5 -2.945312 4.78125 -3.0625 C 4.5625 -3.1875 4.203125 -3.304688 3.703125 -3.421875 C 2.640625 -3.679688 1.859375 -4.023438 1.359375 -4.453125 C 0.867188 -4.878906 0.625 -5.484375 0.625 -6.265625 C 0.632812 -6.859375 0.789062 -7.378906 1.09375 -7.828125 C 1.40625 -8.285156 1.835938 -8.640625 2.390625 -8.890625 C 2.941406 -9.140625 3.59375 -9.265625 4.34375 -9.265625 C 5.257812 -9.265625 6.015625 -9.03125 6.609375 -8.5625 C 7.203125 -8.101562 7.546875 -7.476562 7.640625 -6.6875 L 5.375 -6.296875 C 5.332031 -6.546875 5.203125 -6.75 4.984375 -6.90625 C 4.765625 -7.0625 4.503906 -7.140625 4.203125 -7.140625 C 3.910156 -7.140625 3.675781 -7.082031 3.5 -6.96875 C 3.320312 -6.851562 3.234375 -6.695312 3.234375 -6.5 C 3.234375 -6.320312 3.320312 -6.164062 3.5 -6.03125 C 3.675781 -5.894531 4.007812 -5.769531 4.5 -5.65625 C 5.195312 -5.476562 5.785156 -5.28125 6.265625 -5.0625 C 6.742188 -4.84375 7.101562 -4.5625 7.34375 -4.21875 C 7.59375 -3.875 7.71875 -3.425781 7.71875 -2.875 C 7.71875 -2.28125 7.554688 -1.753906 7.234375 -1.296875 C 6.910156 -0.847656 6.457031 -0.5 5.875 -0.25 C 5.300781 0 4.625 0.125 3.84375 0.125 Z M 3.84375 0.125 "/></g></g></g><g fill="#000000" fill-opacity="1"><g transform="translate(176.226444, 213.140361)"><g><path d="M 6.6875 -9.140625 L 9.203125 -9.140625 L 9.234375 -4.140625 C 9.242188 -3.296875 9.070312 -2.550781 8.71875 -1.90625 C 8.363281 -1.257812 7.867188 -0.753906 7.234375 -0.390625 C 6.597656 -0.0351562 5.859375 0.140625 5.015625 0.140625 C 3.648438 0.140625 2.59375 -0.203125 1.84375 -0.890625 C 1.101562 -1.578125 0.734375 -2.59375 0.734375 -3.9375 L 0.734375 -9.140625 L 3.3125 -9.140625 L 3.3125 -4.0625 C 3.3125 -3.375 3.472656 -2.878906 3.796875 -2.578125 C 4.117188 -2.273438 4.53125 -2.125 5.03125 -2.125 C 5.5625 -2.125 5.972656 -2.285156 6.265625 -2.609375 C 6.566406 -2.941406 6.710938 -3.476562 6.703125 -4.21875 Z M 6.6875 -9.140625 "/></g></g></g><g fill="#000000" fill-opacity="1"><g transform="translate(196.505399, 213.140361)"><g><path d="M 0.765625 0 L 0.765625 -9.140625 L 3.34375 -9.140625 L 3.34375 -2.234375 L 7.15625 -2.234375 L 7 0 Z M 0.765625 0 "/></g></g></g><g fill="#000000" fill-opacity="1"><g transform="translate(213.925197, 213.140361)"><g><path d="M 8.28125 -9.140625 L 7.90625 -6.90625 L 5.234375 -6.90625 L 5.234375 0 L 2.65625 0 L 2.65625 -6.90625 L -0.203125 -6.90625 L -0.203125 -9.140625 Z M 8.28125 -9.140625 "/></g></g></g><g fill="#000000" fill-opacity="1"><g transform="translate(232.104857, 213.140361)"><g><path d="M 0.765625 0 L 0.765625 -9.140625 L 3.34375 -9.140625 L 3.34375 0 Z M 0.765625 0 "/></g></g></g><g fill="#000000" fill-opacity="1"><g transform="translate(246.536697, 213.140361)"><g><path d="M 6.609375 -9.140625 L 9.078125 -9.140625 L 9.078125 0 L 6.78125 0 L 3.25 -4.921875 L 3.25 0 L 0.765625 0 L 0.765625 -9.140625 L 3.0625 -9.140625 L 6.609375 -4.234375 Z M 6.609375 -9.140625 "/></g></g></g><g fill="#000000" fill-opacity="1"><g transform="translate(266.699735, 213.140361)"><g><path d="M 5.421875 -5.1875 L 9.625 -5.1875 L 9.625 0 L 7.578125 0 L 7.421875 -0.78125 C 7.148438 -0.476562 6.796875 -0.25 6.359375 -0.09375 C 5.921875 0.0625 5.453125 0.140625 4.953125 0.140625 C 4.015625 0.140625 3.203125 -0.0351562 2.515625 -0.390625 C 1.828125 -0.753906 1.289062 -1.273438 0.90625 -1.953125 C 0.53125 -2.628906 0.34375 -3.4375 0.34375 -4.375 C 0.34375 -5.34375 0.554688 -6.191406 0.984375 -6.921875 C 1.421875 -7.660156 2.03125 -8.234375 2.8125 -8.640625 C 3.601562 -9.054688 4.523438 -9.265625 5.578125 -9.265625 C 6.546875 -9.265625 7.347656 -9.109375 7.984375 -8.796875 C 8.617188 -8.492188 9.144531 -8.023438 9.5625 -7.390625 L 7.609375 -5.96875 C 7.410156 -6.320312 7.125 -6.578125 6.75 -6.734375 C 6.375 -6.890625 5.988281 -6.96875 5.59375 -6.96875 C 4.800781 -6.96875 4.175781 -6.734375 3.71875 -6.265625 C 3.257812 -5.804688 3.03125 -5.195312 3.03125 -4.4375 C 3.03125 -3.71875 3.226562 -3.15625 3.625 -2.75 C 4.019531 -2.351562 4.570312 -2.15625 5.28125 -2.15625 C 5.6875 -2.15625 6.046875 -2.238281 6.359375 -2.40625 C 6.679688 -2.570312 6.910156 -2.804688 7.046875 -3.109375 L 5.421875 -3.109375 Z M 5.421875 -5.1875 "/></g></g></g></svg>